<svg width="85" height="85" viewBox="0 0 85 85" fill="none" xmlns="http://www.w3.org/2000/svg">
<path d="M18.0291 62.518C5.06794 48.5707 5.47618 26.9843 18.6642 13.5225L18.6793 13.5384C18.7709 13.4309 18.8666 13.3167 18.9708 13.2167C21.5177 10.6085 25.6933 10.5623 28.2948 13.11C30.9021 15.6578 30.9483 19.8368 28.3981 22.4408C28.2948 22.5449 28.1881 22.6407 28.0772 22.7356L28.0881 22.7432C17.4176 33.7152 17.111 51.2385 27.6471 62.5751C38.4815 74.2402 56.7027 74.9433 68.4115 64.1737C68.3393 64.235 68.2746 64.303 68.2065 64.3652C53.8409 77.7136 31.3767 76.8879 18.0291 62.518Z" fill="#6A71F1"/>
<path d="M32.1025 61.4192C22.3811 50.9612 22.6869 34.7719 32.5771 24.6751L32.5846 24.6911C32.6569 24.6062 32.7299 24.5222 32.8072 24.4458C34.7149 22.492 37.8481 22.4575 39.8019 24.3702C41.7566 26.2778 41.7877 29.411 39.875 31.3649C39.8019 31.4447 39.7137 31.5127 39.6373 31.5833L39.6448 31.59C31.6438 39.8203 31.4187 52.9613 39.3155 61.468C47.4425 70.2182 61.1077 70.7416 69.8848 62.6675C69.8353 62.7137 69.7882 62.759 69.7269 62.8103C58.9581 72.818 42.1077 72.1981 32.1025 61.4192Z" fill="#86A6BB"/>
<path d="M66.3098 62.124C76.0084 57.5728 80.3378 46.2295 76.2873 36.4351L76.2755 36.4384C76.2529 36.3628 76.231 36.2856 76.1957 36.2091C75.4112 34.3124 73.2465 33.4094 71.3498 34.1898C69.4531 34.9743 68.5534 37.1432 69.3329 39.0391C69.3674 39.1147 69.4027 39.1836 69.4371 39.2608H69.4329C72.6887 47.2266 69.1624 56.433 61.2832 60.1348C53.1764 63.9367 43.5223 60.4683 39.6826 52.3858C39.7019 52.4388 39.7255 52.4858 39.7473 52.532C44.4337 62.5179 56.3272 66.8137 66.3098 62.124Z" fill="#6A71F1"/>
<path d="M59.2043 58.597C66.4694 55.1824 69.7211 46.674 66.6836 39.3299H66.6761C66.6576 39.2736 66.6374 39.2114 66.6156 39.1552C66.0267 37.7364 64.4013 37.0585 62.9817 37.6482C61.5605 38.2286 60.8868 39.8582 61.4672 41.277C61.4975 41.335 61.5201 41.3879 61.5479 41.4416L61.5445 41.45C63.983 47.4224 61.3379 54.323 55.4285 57.0992C49.3477 59.9519 42.1077 57.3521 39.2249 51.2923C39.2433 51.3242 39.2627 51.3629 39.2778 51.4007C42.7974 58.8885 51.7115 62.109 59.2043 58.597Z" fill="#86A6BB"/>
</svg>
